HIERARCHY
ROOT Hips
{
	OFFSET 0.000000 0.000000 0.000000
	CHANNELS 6 Xposition Yposition Zposition Zrotation Yrotation Xrotation 
	JOINT LowerBack
	{
		OFFSET 0.000000 0.000000 0.000000
		CHANNELS 3 Zrotation Yrotation Xrotation
		JOINT Spine
		{
			OFFSET 0.028270 2.035590 -0.193380
			CHANNELS 3 Zrotation Yrotation Xrotation
			JOINT Spine1
			{
				OFFSET 0.056720 2.048850 -0.042750
				CHANNELS 3 Zrotation Yrotation Xrotation
				JOINT Neck
				{
					OFFSET 0.000000 0.000000 0.000000
					CHANNELS 3 Zrotation Yrotation Xrotation
					JOINT Neck1
					{
						OFFSET -0.054170 1.746240 0.172020
						CHANNELS 3 Zrotation Yrotation Xrotation
						JOINT Head
						{
							OFFSET 0.104070 1.761360 -0.123970
							CHANNELS 3 Zrotation Yrotation Xrotation
							End Site
							{
								OFFSET 0.000000 0.000000 0.000000
							}
						}
					}
				}
				JOINT LeftShoulder
				{
					OFFSET 0.000000 0.000000 0.000000
					CHANNELS 3 Zrotation Yrotation Xrotation
					JOINT LeftArm
					{
						OFFSET 3.362410 1.200890 -0.311210
						CHANNELS 3 Zrotation Yrotation Xrotation
						JOINT LeftForeArm
						{
							OFFSET 4.983000 -0.000000 -0.000000
							CHANNELS 3 Zrotation Yrotation Xrotation
							JOINT LeftHand
							{
								OFFSET 3.483560 -0.000000 -0.000000
								CHANNELS 3 Zrotation Yrotation Xrotation
								JOINT LeftFingerBase
								{
									OFFSET 0.000000 0.000000 0.000000
									CHANNELS 3 Zrotation Yrotation Xrotation
									JOINT LeftHandIndex1
									{
										OFFSET 0.715260 -0.000000 -0.000000
										CHANNELS 3 Zrotation Yrotation Xrotation
										End Site
										{
											OFFSET 0.000000 0.000000 0.000000
										}
									}
								}
								JOINT LThumb
								{
									OFFSET 0.000000 0.000000 0.000000
									CHANNELS 3 Zrotation Yrotation Xrotation
									End Site
									{
										OFFSET 0.000000 0.000000 0.000000
									}
								}
							}
						}
					}
				}
				JOINT RightShoulder
				{
					OFFSET 0.000000 0.000000 0.000000
					CHANNELS 3 Zrotation Yrotation Xrotation
					JOINT RightArm
					{
						OFFSET -3.136600 1.374050 -0.404650
						CHANNELS 3 Zrotation Yrotation Xrotation
						JOINT RightForeArm
						{
							OFFSET -5.241900 -0.000000 -0.000000
							CHANNELS 3 Zrotation Yrotation Xrotation
							JOINT RightHand
							{
								OFFSET -3.444170 -0.000000 -0.000000
								CHANNELS 3 Zrotation Yrotation Xrotation
								JOINT RightFingerBase
								{
									OFFSET 0.000000 0.000000 0.000000
									CHANNELS 3 Zrotation Yrotation Xrotation
									JOINT RightHandIndex1
									{
										OFFSET -0.622530 -0.000000 -0.000000
										CHANNELS 3 Zrotation Yrotation Xrotation
										End Site
										{
											OFFSET 0.000000 0.000000 0.000000
										}
									}
								}
								JOINT RThumb
								{
									OFFSET 0.000000 0.000000 0.000000
									CHANNELS 3 Zrotation Yrotation Xrotation
									End Site
									{
										OFFSET 0.000000 0.000000 0.000000
									}
								}
							}
						}
					}
				}
			}
		}
	}
}
}
MOTION
Frames: 9
Frame Time: 0.008333
-4.724121 14.848382 -0.855073 -158.771706 -84.616744 -138.839610 2.826300 -0.916490 0.911102 -0.280902 -1.053810 -3.559802 -5.564873 -1.104502 -3.727346 9.820055 -0.994151 -5.871741 -3.479126 -0.228312 -0.447879 0.000000 0.000000 0.000000 5.176184 3.116351 2.837257 -66.483015 -10.683556 -6.049374 -179.857897 -82.284104 179.860138 15.604563 -5.621420 -0.873920 -0.295559 0.642771 0.000000 0.000000 0.000000 0.000000 0.000000 0.000000 0.000000 12.098968 3.577752 1.129650 69.696209 15.694025 2.053716 -179.929657 79.137321 179.856019 -16.801015 19.513277 -3.082573 0.242611 -0.834980 0.000000 0.000000 0.000000 0.000000 0.000000 0.000000 0.000000 
-4.718514 14.850018 -0.874195 -154.733480 -84.565614 -143.671531 3.430273 -0.908750 1.148966 -0.162598 -1.062632 -3.489847 -5.695690 -1.117848 -3.680826 10.160619 -1.131760 -6.047069 -3.520027 -0.229669 -0.488238 0.000000 0.000000 0.000000 5.243025 3.034709 2.909097 -66.706208 -10.023067 -6.274672 -179.951216 -85.021305 179.860944 15.909658 -5.539931 -0.875253 -0.280141 0.619728 0.000000 0.000000 0.000000 0.000000 0.000000 0.000000 0.000000 12.835016 3.439093 1.168517 69.850639 15.489873 2.137534 -179.931618 80.789556 179.860593 -16.621700 19.868665 -3.100398 0.233155 -0.821650 0.000000 0.000000 0.000000 0.000000 0.000000 0.000000 0.000000 
-4.714357 14.853048 -0.892352 -150.207542 -84.522949 -149.056032 4.113078 -0.899804 1.390864 -0.024806 -1.071083 -3.414150 -5.828347 -1.130918 -3.614855 10.473696 -1.299907 -6.232720 -3.549557 -0.230205 -0.529480 0.000000 0.000000 0.000000 5.295814 2.992789 2.984543 -66.940598 -9.428237 -6.411627 179.971849 -87.952147 179.862233 16.212414 -5.453577 -0.875283 -0.265492 0.596254 0.000000 0.000000 0.000000 0.000000 0.000000 0.000000 0.000000 13.482661 3.266888 1.196737 70.063023 15.260919 2.178053 -179.928976 82.518258 179.864745 -16.483877 20.221954 -3.124622 0.224059 -0.807562 0.000000 0.000000 0.000000 0.000000 0.000000 0.000000 0.000000 
-4.711715 14.857912 -0.909439 -145.309310 -84.510077 -154.882796 4.871853 -0.904274 1.641920 0.133942 -1.092784 -3.331696 -5.959578 -1.157476 -3.530972 10.754895 -1.488277 -6.424872 -3.569323 -0.230060 -0.570769 0.000000 0.000000 0.000000 5.332967 2.983134 3.065366 -67.191088 -8.888204 -6.466892 -0.089131 -88.956571 -0.135856 16.492829 -5.350622 -0.871107 -0.251636 0.572375 0.000000 0.000000 0.000000 0.000000 0.000000 0.000000 0.000000 14.042840 3.065107 1.213861 70.318171 15.011357 2.170606 -179.922391 84.320197 179.868348 -16.406547 20.546421 -3.155148 0.215621 -0.792350 -0.000000 0.000000 0.000000 0.000000 0.000000 0.000000 0.000000 
-4.710884 14.863568 -0.927445 -140.788308 -84.527363 -160.391307 5.620128 -0.934860 1.872920 0.293274 -1.139114 -3.249419 -6.087828 -1.208826 -3.423823 11.014196 -1.708483 -6.624939 -3.582673 -0.229495 -0.611914 0.000000 0.000000 0.000000 5.384351 3.000064 3.149961 -67.454133 -8.380697 -6.429972 -0.136404 -85.740832 -0.133244 16.741119 -5.224030 -0.861022 -0.238967 0.548129 -0.000000 0.000000 0.000000 0.000000 0.000000 0.000000 0.000000 14.543261 2.815262 1.220143 70.611286 14.743267 2.128827 -179.913561 86.189025 179.871358 -16.406451 20.802884 -3.190074 0.208329 -0.775614 0.000000 0.000000 0.000000 0.000000 0.000000 0.000000 0.000000 
-4.711901 14.870615 -0.945938 -136.736543 -84.571729 -165.495633 6.338109 -0.991837 2.091200 0.448281 -1.210037 -3.166415 -6.209793 -1.284710 -3.295327 11.244811 -1.956002 -6.831007 -3.591914 -0.228672 -0.652736 0.000000 0.000000 0.000000 5.440995 3.041619 3.237560 -67.733019 -7.890647 -6.309585 -0.173725 -82.445768 -0.129880 16.944122 -5.059280 -0.842328 -0.227459 0.523424 -0.000000 0.000000 0.000000 0.000000 0.000000 0.000000 0.000000 14.988569 2.521595 1.217487 70.921494 14.467324 2.053864 -179.903733 88.121383 179.873821 -16.487367 20.965626 -3.226600 0.202340 -0.757165 -0.000000 0.000000 0.000000 0.000000 0.000000 0.000000 0.000000 
-4.715043 14.879218 -0.964925 -133.253204 -84.625943 -170.096093 7.004095 -1.068689 2.298819 0.592530 -1.299036 -3.081935 -6.324132 -1.378235 -3.142988 11.443693 -2.241426 -7.046847 -3.599553 -0.227719 -0.694614 0.000000 0.000000 0.000000 5.496346 3.123905 3.324932 -68.025598 -7.417415 -6.097196 -0.205838 -79.107907 -0.125780 17.099421 -4.851910 -0.814221 -0.217230 0.498230 -0.000000 0.000000 0.000000 0.000000 0.000000 0.000000 0.000000 15.390516 2.175634 1.207638 71.229509 14.203747 1.961129 0.105973 89.885017 -0.124151 -16.650389 21.005712 -3.260623 0.197903 -0.736840 0.000000 0.000000 0.000000 0.000000 0.000000 0.000000 0.000000 
-4.720302 14.889482 -0.984894 -130.630459 -84.667865 -173.897906 7.582278 -1.157687 2.494636 0.715978 -1.398313 -2.997654 -6.429231 -1.481421 -2.969579 11.609847 -2.558148 -7.269758 -3.607698 -0.226809 -0.736792 0.000000 0.000000 0.000000 5.557440 3.245394 3.409933 -68.335700 -6.930434 -5.805650 -0.237108 -75.782238 -0.120955 17.196877 -4.585707 -0.773705 -0.208124 0.472449 -0.000000 0.000000 0.000000 0.000000 0.000000 0.000000 0.000000 15.759276 1.788288 1.193156 71.524666 13.950668 1.852981 0.114983 87.837784 -0.122359 -16.879372 20.918511 -3.287841 0.194902 -0.714846 0.000000 0.000000 0.000000 0.000000 0.000000 0.000000 0.000000 
-4.727819 14.901478 -1.006213 -129.001260 -84.676945 -176.762620 8.058320 -1.248933 2.679592 0.814011 -1.498165 -2.914184 -6.524624 -1.584450 -2.777111 11.741830 -2.902381 -7.498334 -3.617834 -0.226063 -0.778929 0.000000 0.000000 0.000000 5.625958 3.411154 3.489810 -68.665772 -6.407224 -5.443430 -0.271427 -72.519714 -0.115465 17.231726 -4.249999 -0.719378 -0.200003 0.446050 -0.000000 0.000000 0.000000 0.000000 0.000000 0.000000 0.000000 16.101732 1.368416 1.176165 71.797498 13.707564 1.733413 0.123419 85.743781 -0.120571 -17.151447 20.708716 -3.303655 0.193140 -0.691466 -0.000000 0.000000 0.000000 0.000000 0.000000 0.000000 0.000000 
